<svg width="851" height="330" viewBox="0 0 851 330" fill="none" xmlns="http://www.w3.org/2000/svg">
<path d="M479.689 72.6072L468.854 75.5095C468.467 73.7681 467.79 72.0912 466.823 70.4789C465.887 68.8342 464.436 67.496 462.469 66.464C460.534 65.3999 457.89 64.8678 454.536 64.8678C449.989 64.8678 446.039 65.9158 442.685 68.0119C439.331 70.0758 437.413 72.7039 436.929 75.8965C436.445 78.702 437.09 80.9432 438.864 82.6201C440.638 84.297 443.604 85.6675 447.764 86.7317L458.406 89.4405C464.791 91.0851 469.338 93.552 472.047 96.8413C474.788 100.098 475.723 104.339 474.852 109.563C474.143 113.82 472.289 117.625 469.29 120.979C466.291 124.332 462.453 126.977 457.777 128.912C453.101 130.846 447.893 131.814 442.153 131.814C434.51 131.814 428.48 130.169 424.062 126.88C419.644 123.558 417.29 118.754 417 112.465L428.416 109.756C428.706 113.723 430.125 116.722 432.672 118.754C435.252 120.753 438.864 121.753 443.508 121.753C448.828 121.753 453.262 120.624 456.81 118.367C460.357 116.077 462.372 113.336 462.856 110.143C463.34 107.531 462.824 105.355 461.308 103.613C459.825 101.872 457.245 100.566 453.569 99.6952L441.766 96.7929C435.188 95.1483 430.576 92.633 427.932 89.247C425.32 85.861 424.449 81.6043 425.32 76.4769C426.029 72.2847 427.835 68.5763 430.737 65.3515C433.672 62.1267 437.348 59.5953 441.766 57.7572C446.216 55.9191 451.054 55 456.278 55C463.63 55 469.128 56.6124 472.772 59.8371C476.416 63.0297 478.722 67.2863 479.689 72.6072Z" fill="#1681F6"/>
<path d="M519.511 131.814C512.384 131.814 506.499 130.234 501.856 127.073C497.212 123.881 493.971 119.431 492.133 113.723C490.295 107.983 490.005 101.308 491.262 93.6972C492.52 86.0867 495.019 79.3792 498.76 73.5746C502.501 67.7378 507.16 63.1909 512.739 59.9339C518.318 56.6446 524.445 55 531.12 55C534.99 55 538.715 55.645 542.294 56.9349C545.874 58.2248 548.969 60.3209 551.581 63.2231C554.194 66.0932 556.016 69.8984 557.047 74.6388C558.079 79.3792 558.015 85.216 556.854 92.1493L556.08 96.9864H498.808L500.356 87.1186H546.019C546.76 82.9264 546.567 79.1857 545.438 75.8965C544.342 72.6072 542.423 70.0113 539.682 68.1087C536.973 66.206 533.539 65.2547 529.379 65.2547C525.09 65.2547 521.091 66.4157 517.383 68.7375C513.674 71.0271 510.579 73.9294 508.096 77.4444C505.612 80.9271 504.065 84.4743 503.452 88.0861L502.097 96.5994C501.13 102.759 501.275 107.66 502.533 111.304C503.823 114.948 506.064 117.577 509.256 119.189C512.449 120.769 516.448 121.559 521.253 121.559C524.316 121.559 527.138 121.14 529.718 120.301C532.297 119.431 534.603 118.141 536.635 116.432C538.666 114.69 540.375 112.53 541.762 109.95L552.21 113.046C550.437 116.786 547.937 120.076 544.713 122.914C541.52 125.719 537.779 127.912 533.491 129.492C529.234 131.04 524.574 131.814 519.511 131.814Z" fill="#1681F6"/>
<path d="M599.058 131.814C591.931 131.814 586.046 130.234 581.402 127.073C576.759 123.881 573.518 119.431 571.68 113.723C569.842 107.983 569.551 101.308 570.809 93.6972C572.067 86.0867 574.566 79.3792 578.307 73.5746C582.047 67.7378 586.707 63.1909 592.286 59.9339C597.865 56.6446 603.992 55 610.667 55C614.537 55 618.262 55.645 621.841 56.9349C625.42 58.2248 628.516 60.3209 631.128 63.2231C633.74 66.0932 635.562 69.8984 636.594 74.6388C637.626 79.3792 637.562 85.216 636.401 92.1493L635.627 96.9864H578.355L579.903 87.1186H625.566C626.307 82.9264 626.114 79.1857 624.985 75.8965C623.889 72.6072 621.97 70.0113 619.229 68.1087C616.52 66.206 613.086 65.2547 608.926 65.2547C604.637 65.2547 600.638 66.4157 596.93 68.7375C593.221 71.0271 590.125 73.9294 587.642 77.4444C585.159 80.9271 583.611 84.4743 582.999 88.0861L581.644 96.5994C580.677 102.759 580.822 107.66 582.08 111.304C583.37 114.948 585.611 117.577 588.803 119.189C591.996 120.769 595.995 121.559 600.799 121.559C603.863 121.559 606.685 121.14 609.264 120.301C611.844 119.431 614.15 118.141 616.182 116.432C618.213 114.69 619.922 112.53 621.309 109.95L631.757 113.046C629.984 116.786 627.484 120.076 624.26 122.914C621.067 125.719 617.326 127.912 613.037 129.492C608.781 131.04 604.121 131.814 599.058 131.814Z" fill="#1681F6"/>
<path d="M487.201 200.251L468.481 201.412C468.384 199.768 467.933 198.3 467.127 197.01C466.353 195.688 465.208 194.64 463.692 193.866C462.209 193.092 460.339 192.705 458.081 192.705C454.695 192.705 451.68 193.479 449.036 195.027C446.392 196.575 444.892 198.558 444.537 200.977C444.247 202.525 444.65 203.831 445.747 204.895C446.843 205.959 449.052 206.862 452.373 207.604L465.434 210.313C472.399 211.796 477.43 214.263 480.526 217.713C483.654 221.164 484.766 225.679 483.863 231.257C483.057 235.998 480.977 240.142 477.623 243.689C474.27 247.204 470.013 249.945 464.853 251.912C459.694 253.847 453.97 254.814 447.681 254.814C437.588 254.814 429.913 252.75 424.657 248.623C419.4 244.495 416.869 238.9 417.062 231.838L437.185 230.774C437.346 233.805 438.41 236.095 440.377 237.642C442.344 239.158 445.037 239.932 448.455 239.964C452.293 240.029 455.55 239.239 458.226 237.594C460.935 235.917 462.467 233.886 462.822 231.499C463.08 229.822 462.596 228.468 461.371 227.436C460.177 226.404 457.985 225.55 454.792 224.872L442.409 222.309C435.379 220.858 430.332 218.262 427.269 214.521C424.205 210.78 423.157 206.024 424.125 200.251C424.898 195.64 426.817 191.69 429.881 188.4C432.977 185.079 436.959 182.531 441.828 180.758C446.73 178.984 452.261 178.097 458.42 178.097C468.062 178.097 475.318 180.08 480.187 184.047C485.089 188.013 487.427 193.415 487.201 200.251Z" fill="#1681F6"/>
<path d="M514.108 254.766C509.399 254.766 505.32 253.944 501.87 252.299C498.451 250.622 495.936 248.139 494.324 244.85C492.711 241.561 492.308 237.481 493.114 232.612C493.824 228.484 495.162 225.034 497.129 222.26C499.128 219.455 501.563 217.197 504.433 215.488C507.303 213.779 510.48 212.473 513.962 211.57C517.477 210.667 521.105 210.055 524.846 209.732C529.167 209.281 532.682 208.845 535.391 208.426C538.132 208.007 540.18 207.41 541.534 206.636C542.889 205.83 543.711 204.637 544.001 203.057V202.767C544.485 199.735 543.92 197.381 542.308 195.704C540.728 193.995 538.197 193.141 534.714 193.141C531.038 193.141 527.91 193.947 525.33 195.559C522.782 197.172 520.96 199.219 519.864 201.702L501.096 200.155C502.772 195.64 505.304 191.738 508.69 188.449C512.108 185.127 516.22 182.58 521.025 180.806C525.83 179 531.215 178.097 537.181 178.097C541.308 178.097 545.162 178.581 548.741 179.548C552.353 180.516 555.465 182.015 558.077 184.047C560.721 186.078 562.624 188.691 563.785 191.883C564.978 195.043 565.22 198.832 564.511 203.25L556.142 253.363H536.6L538.342 243.06H537.761C536.181 245.382 534.246 247.43 531.957 249.203C529.667 250.945 527.039 252.315 524.072 253.315C521.105 254.282 517.784 254.766 514.108 254.766ZM522.379 240.545C525.378 240.545 528.135 239.948 530.651 238.755C533.198 237.53 535.294 235.885 536.939 233.821C538.616 231.757 539.68 229.419 540.131 226.807L541.389 218.923C540.744 219.342 539.809 219.713 538.583 220.035C537.39 220.358 536.084 220.664 534.665 220.954C533.279 221.212 531.876 221.454 530.457 221.68C529.038 221.873 527.764 222.067 526.636 222.26C524.153 222.615 521.928 223.179 519.96 223.953C517.993 224.727 516.397 225.775 515.172 227.097C513.946 228.387 513.188 230 512.898 231.935C512.447 234.74 513.108 236.885 514.881 238.368C516.687 239.819 519.187 240.545 522.379 240.545Z" fill="#1681F6"/>
<path d="M572.129 253.363L584.512 179.065H605.118L592.735 253.363H572.129ZM596.944 169.39C593.88 169.39 591.349 168.375 589.349 166.343C587.382 164.279 586.576 161.828 586.931 158.99C587.285 156.088 588.672 153.637 591.091 151.638C593.509 149.606 596.25 148.591 599.314 148.591C602.377 148.591 604.877 149.606 606.811 151.638C608.746 153.637 609.552 156.088 609.23 158.99C608.907 161.828 607.537 164.279 605.118 166.343C602.732 168.375 600.007 169.39 596.944 169.39Z" fill="#1681F6"/>
<path d="M646.295 154.298L629.848 253.363H609.242L625.688 154.298H646.295Z" fill="#1681F6"/>
<path d="M646.355 253.363L658.738 179.065H679.344L666.961 253.363H646.355ZM671.17 169.39C668.106 169.39 665.575 168.375 663.575 166.343C661.608 164.279 660.802 161.828 661.157 158.99C661.511 156.088 662.898 153.637 665.317 151.638C667.735 149.606 670.476 148.591 673.54 148.591C676.603 148.591 679.103 149.606 681.037 151.638C682.972 153.637 683.778 156.088 683.456 158.99C683.133 161.828 681.763 164.279 679.344 166.343C676.958 168.375 674.233 169.39 671.17 169.39Z" fill="#1681F6"/>
<path d="M711.33 210.409L704.171 253.363H683.613L695.996 179.065H715.587L713.458 192.173H714.281C716.635 187.82 719.956 184.385 724.245 181.87C728.566 179.355 733.484 178.097 738.998 178.097C744.158 178.097 748.463 179.226 751.914 181.483C755.396 183.741 757.847 186.949 759.266 191.109C760.717 195.269 760.959 200.251 759.992 206.056L752.059 253.363H731.453L738.757 209.732C739.498 205.185 738.918 201.638 737.015 199.09C735.145 196.511 732.13 195.221 727.97 195.221C725.196 195.221 722.649 195.817 720.327 197.01C718.005 198.204 716.054 199.945 714.474 202.235C712.926 204.492 711.878 207.217 711.33 210.409Z" fill="#1681F6"/>
<path d="M797.032 282.773C790.325 282.773 784.73 281.854 780.247 280.016C775.797 278.21 772.411 275.743 770.089 272.615C767.8 269.487 766.542 265.972 766.316 262.07L785.858 259.506C786.213 261.022 786.89 262.425 787.89 263.715C788.922 265.005 790.389 266.036 792.292 266.81C794.227 267.584 796.726 267.971 799.789 267.971C804.272 267.971 808.174 266.875 811.495 264.682C814.817 262.521 816.864 258.894 817.638 253.798L819.863 240.206H818.993C817.767 242.27 816.09 244.221 813.962 246.059C811.866 247.897 809.302 249.397 806.271 250.558C803.272 251.719 799.805 252.299 795.871 252.299C790.26 252.299 785.391 251.009 781.263 248.429C777.168 245.817 774.201 241.835 772.363 236.482C770.557 231.096 770.331 224.292 771.685 216.069C773.104 207.652 775.652 200.622 779.328 194.979C783.004 189.335 787.358 185.111 792.388 182.305C797.419 179.5 802.659 178.097 808.109 178.097C812.269 178.097 815.623 178.807 818.17 180.226C820.75 181.612 822.733 183.354 824.12 185.45C825.507 187.513 826.49 189.545 827.071 191.544H827.893L829.925 179.065H850.386L837.906 254.089C836.906 260.442 834.504 265.73 830.699 269.955C826.926 274.211 822.137 277.404 816.332 279.532C810.528 281.693 804.094 282.773 797.032 282.773ZM804.772 236.82C808.061 236.82 811.011 235.998 813.624 234.353C816.268 232.676 818.477 230.29 820.25 227.194C822.024 224.066 823.266 220.325 823.975 215.972C824.684 211.619 824.668 207.846 823.927 204.653C823.217 201.428 821.831 198.929 819.767 197.156C817.735 195.382 815.059 194.495 811.737 194.495C808.319 194.495 805.32 195.414 802.74 197.252C800.16 199.058 798.016 201.573 796.307 204.798C794.63 208.023 793.453 211.748 792.775 215.972C792.066 220.261 792.034 223.969 792.679 227.097C793.356 230.193 794.694 232.596 796.694 234.305C798.693 235.982 801.386 236.82 804.772 236.82Z" fill="#1681F6"/>
<path fill-rule="evenodd" clip-rule="evenodd" d="M62.3696 132.56H158.5L157 143.031L62.3696 143.031V132.56Z" fill="#1681F6"/>
<path fill-rule="evenodd" clip-rule="evenodd" d="M50.2702 134.015C48.1155 134.015 46.3688 135.761 46.3688 137.916C46.3688 140.071 48.1155 141.817 50.2702 141.817C52.4248 141.817 54.1715 140.071 54.1715 137.916C54.1715 135.761 52.4248 134.015 50.2702 134.015ZM35.9651 137.916C35.9651 130.015 42.3697 123.611 50.2702 123.611C58.1706 123.611 64.5752 130.015 64.5752 137.916C64.5752 145.816 58.1706 152.221 50.2702 152.221C42.3697 152.221 35.9651 145.816 35.9651 137.916Z" fill="#1681F6"/>
<path fill-rule="evenodd" clip-rule="evenodd" d="M14.3051 186.098C12.1504 186.098 10.4037 187.845 10.4037 190C10.4037 192.154 12.1504 193.901 14.3051 193.901C16.4598 193.901 18.2065 192.154 18.2065 190C18.2065 187.845 16.4598 186.098 14.3051 186.098ZM0 190C0 182.099 6.4046 175.695 14.3051 175.695C22.2056 175.695 28.6102 182.099 28.6102 190C28.6102 197.9 22.2056 204.305 14.3051 204.305C6.4046 204.305 0 197.9 0 190Z" fill="#1681F6"/>
<path fill-rule="evenodd" clip-rule="evenodd" d="M94.2843 195.007C92.1296 195.007 90.3829 196.754 90.3829 198.909C90.3829 201.063 92.1296 202.81 94.2843 202.81C96.439 202.81 98.1857 201.063 98.1857 198.909C98.1857 196.754 96.439 195.007 94.2843 195.007ZM79.9792 198.909C79.9792 191.008 86.3838 184.604 94.2843 184.604C102.185 184.604 108.589 191.008 108.589 198.909C108.589 206.809 102.185 213.214 94.2843 213.214C86.3838 213.214 79.9792 206.809 79.9792 198.909Z" fill="#1681F6"/>
<path fill-rule="evenodd" clip-rule="evenodd" d="M57.1542 184.258L106.757 134.145L114.505 141.803L61.7035 195.149H19.3574V184.258H57.1542Z" fill="#1681F6"/>
<path fill-rule="evenodd" clip-rule="evenodd" d="M124.609 159.895H154L152.5 170.299H128.922L101.866 197.383L94.5056 190.031L124.609 159.895Z" fill="#1681F6"/>
<path fill-rule="evenodd" clip-rule="evenodd" d="M222.281 328.682C231.241 328.675 246.078 328.684 273.488 328.729C286.536 262.032 277.605 135.62 261.592 60.1889C248.224 59.5024 238.757 60.8575 234.013 61.5365C232.126 61.8066 230.986 61.9697 230.645 61.855C230.645 139.686 233.038 177.296 234.592 201.711C237.082 240.842 237.415 246.076 222.281 328.682ZM275.144 61.4996C279.833 84.4445 283.851 111.446 286.859 139.735C293.884 205.805 295.614 280.964 286.634 329.192C298.439 329.185 307.458 329.169 316.478 329.152C336.988 329.115 357.499 329.077 410.76 329.152C399.294 304.5 389.309 282.774 380.279 263.126C342.216 180.304 321.12 134.4 277.534 61.8549C276.728 61.729 275.931 61.6107 275.144 61.4996Z" fill="#1681F6"/>
<path d="M273.488 328.729C170.558 328.56 244.93 328.898 142 328.729C149.803 279.961 163.457 160.969 195.526 2.09189C196.983 2.66409 213.524 -2.88888 240.834 2.09187C267.493 29.6227 291.551 236.396 273.488 328.729Z" fill="#1681F6"/>
</svg>
